<?xml version="1.0" encoding="utf-8"?>
<!-- Generator: Adobe Illustrator 16.0.4, SVG Export Plug-In . SVG Version: 6.00 Build 0)  -->
<!DOCTYPE svg PUBLIC "-//W3C//DTD SVG 1.1//EN" "http://www.w3.org/Graphics/SVG/1.1/DTD/svg11.dtd">
<svg version="1.1" id="grc-logo" xmlns="http://www.w3.org/2000/svg" xmlns:xlink="http://www.w3.org/1999/xlink" x="0px" y="0px" viewBox="0 0 100 66" enable-background="new 0 0 100 66" xml:space="preserve">
<g>
	<rect fill="#CE0D1C" width="100" height="66"/>
	<polygon fill="#850F16" points="100,66 100,44 29.7,44 16.6,66 	"/>
	<path fill="#FFFFFF" d="M44.1,58.3l0-4.7h0l-1.7,4.7h-1.1l-1.7-4.7h0l0,4.7h-1.5v-6.7h2.3l1.5,4.3h0l1.5-4.3h2.3v6.7H44.1z"/>
	<path fill="#FFFFFF" d="M48.6,58.3v-6.7h4.5v1.4h-2.9v1.3h2.8v1.3h-2.8v1.4h3.1v1.4H48.6z"/>
	<path fill="#FFFFFF" d="M58.2,58.3h-2.5v-6.7h2.4c1.9,0,3.8,0.8,3.8,3.3C62,57.2,60.1,58.3,58.2,58.3z M58.1,52.9h-0.8v3.9h0.8
		c1.2,0,2.2-0.5,2.2-2C60.3,53.4,59.2,52.9,58.1,52.9z"/>
	<path fill="#FFFFFF" d="M64.5,58.3v-6.7h1.6v6.7H64.5z"/>
	<path fill="#FFFFFF" d="M72.3,58.4c-2.1,0-3.6-1.4-3.6-3.5c0-2.2,1.6-3.5,3.6-3.5c0.9,0,1.9,0.3,2.5,1l-1.1,1.1
		c-0.3-0.4-0.8-0.6-1.4-0.6c-1.1,0-1.9,0.9-1.9,2.1c0,1.2,0.8,2.1,1.9,2.1c0.6,0,1.1-0.3,1.4-0.7l1.1,1.1
		C74.3,58,73.4,58.4,72.3,58.4z"/>
	<path fill="#FFFFFF" d="M81.4,58.3l-0.5-1.3h-2.6l-0.5,1.3h-1.8l2.8-6.7h1.6l2.8,6.7H81.4z M79.6,53.3l-0.8,2.3h1.7L79.6,53.3z"/>
	<path fill="#FFFFFF" d="M85.2,58.3v-6.7h1.6v5.3h2.6v1.4H85.2z"/>
	<g>
		<path fill-rule="evenodd" clip-rule="evenodd" fill="#FFFFFF" d="M38.2,33.7c5.6,0,10.1-3.7,10.1-9.8c0-6.5-5-9.8-10.1-9.8
			c-5,0-10.1,3.3-10.1,9.8C28.2,29.9,32.7,33.7,38.2,33.7L38.2,33.7z M38.2,32.5c-3.6,0-6.6-2.4-6.6-8.6c0-6.5,3.3-8.6,6.6-8.6
			c3.3,0,6.6,2.1,6.6,8.6C44.8,30.1,41.8,32.5,38.2,32.5L38.2,32.5z"/>
	</g>
	<g>
		<path fill="#FFFFFF" d="M84.6,17.4L80,21.9l5.6,7.7c1.4,2,2.1,3.1,3.8,3.1v0.9H81v-0.9c1.6-0.1,2.1-0.2,2.1-0.7
			c0-0.4-1.8-3.1-3-4.8c-0.7-0.9-1.8-2.4-2.4-3.1l-1.5,1.3v4.1c0,2,0.4,3.1,2.7,3.2v0.9h-8.4v-0.9c2.3-0.1,2.7-1.2,2.7-3.5V17.5
			c0-2.2-0.7-2.6-2.7-2.7v-0.7h8.5v0.7c-2.3,0.1-2.7,0.6-2.7,2.7v5.8c4.9-4.5,7.3-6.5,7.3-7.5c0-0.5-0.7-1-1.5-1v-0.7h6.2v1.1
			C87.5,15.1,86.7,15.4,84.6,17.4L84.6,17.4z"/>
	</g>
	<g>
		<path fill="#FFFFFF" d="M25.4,27.8c0,0-0.1,4.4-5.4,4.4c-3.4,0-6.6-2-6.6-8.3c0-4.3,1.2-6,2.2-7.1c1.1-1.2,2.7-1.5,4-1.5
			c3.3,0,4.9,1.8,5.6,4.9h1.1l-0.2-5.9h-0.8C24.9,15.3,24.2,15,24,15c-0.4-0.1-2-0.9-4.5-0.9c-4.9,0-9.6,3.4-9.6,9.8
			c0,7.1,4.9,9.8,9.5,9.8c7,0,7.1-5.8,7.1-5.8h-0.6H25.4z"/>
	</g>
	<g>
		<path fill-rule="evenodd" clip-rule="evenodd" fill="#FFFFFF" d="M60.6,33.7c5.6,0,10.1-3.7,10.1-9.8c0-6.5-5-9.8-10.1-9.8
			c-5.1,0-10.1,3.3-10.1,9.8C50.5,29.9,55,33.7,60.6,33.7L60.6,33.7z M60.6,32.5c-3.6,0-6.6-2.4-6.6-8.6c0-6.5,3.3-8.6,6.6-8.6
			c3.3,0,6.6,2.1,6.6,8.6C67.2,30.1,64.1,32.5,60.6,32.5L60.6,32.5z"/>
	</g>
	<g>
		<g>
			<path fill="#FFFFFF" d="M91.8,14.2c1.3,0,2.3,1,2.3,2.3c0,1.3-1,2.3-2.3,2.3c-1.3,0-2.3-1-2.3-2.3C89.5,15.2,90.5,14.2,91.8,14.2
				z M91.8,18.4c1.1,0,1.9-0.9,1.9-1.9c0-1.1-0.9-1.9-1.9-1.9c-1.1,0-1.9,0.9-1.9,1.9C89.8,17.5,90.7,18.4,91.8,18.4z M92.3,17.7
				l-0.5-1h-0.4v1h-0.6v-2.6h1.1c0.5,0,1,0.2,1,0.8c0,0.3-0.2,0.6-0.5,0.7l0.7,1.1H92.3z M91.9,16.3c0.2,0,0.4-0.1,0.4-0.3
				c0-0.2-0.2-0.3-0.4-0.3h-0.5v0.6H91.9z"/>
			<path fill="#FFFFFF" d="M91.8,18.7c-1.3,0-2.3-1-2.3-2.3c0-1.3,1-2.3,2.3-2.3c1.3,0,2.3,1,2.3,2.3C94.1,17.7,93.1,18.7,91.8,18.7
				z M91.8,14.2c-1.2,0-2.3,1-2.3,2.3c0,1.3,1,2.2,2.3,2.2c1.3,0,2.3-1,2.3-2.2C94,15.2,93,14.2,91.8,14.2z M91.8,18.4
				c-1.1,0-1.9-0.9-1.9-1.9c0-1.1,0.9-1.9,1.9-1.9c1.1,0,1.9,0.9,1.9,1.9C93.7,17.5,92.8,18.4,91.8,18.4z M91.8,14.5
				c-1.1,0-1.9,0.9-1.9,1.9c0,1.1,0.9,1.9,1.9,1.9s1.9-0.9,1.9-1.9C93.7,15.4,92.8,14.5,91.8,14.5z M93.1,17.7h-0.8l0,0l-0.5-1h-0.3
				v1h-0.6v-2.6h1.1c0.3,0,1,0.1,1,0.8c0,0.3-0.2,0.6-0.5,0.7L93.1,17.7z M92.3,17.7H93l-0.7-1.1l0,0c0.3-0.1,0.5-0.4,0.5-0.7
				c0-0.7-0.7-0.8-1-0.8h-1.1v2.5h0.6v-1h0.4l0,0L92.3,17.7z M91.9,16.3h-0.5v-0.7h0.5c0.2,0,0.4,0.1,0.4,0.3
				C92.3,16.2,92.1,16.3,91.9,16.3z M91.4,16.3h0.5c0.2,0,0.4-0.1,0.4-0.3c0-0.2-0.2-0.3-0.4-0.3h-0.5V16.3z"/>
		</g>
	</g>
</g>
</svg>
